PathFileType  4	(X/Y/Z) C:\Users\antoi\Documents\MyRepositories\mobilecap\ResultsAnalysis
DataRate	CameraRate	NumFrames	NumMarkers	Units	OrigDataRate	OrigDataStartFrame	OrigNumFrames
100.0	100.0	4	51	mm	100.0	18	139
Frame#	Time	r_knee			r_shank_antsup			r_ankle			r_calc			r_5meta			r_toe			L_knee			L_shank_antsup			L_ankle			L_calc			L_5meta			L_toe			r_sh2			r_sh3			r_sh4			L_sh2			L_sh3			r_thigh1			r_thigh2			r_thigh3			r_thigh4			r_thigh5			L_thigh1			L_thigh2			L_thigh3			L_thigh4			r.ASIS			r.PSIS			L.ASIS			L.PSIS			C7			R_Shoulder			L_Shoulder			R_Sternum			L_Sternum			R_humerus			R_elbow_med			R_elbow_lat			R_forearm			R_wrist_radius			R_wrist_ulna			L_humerus			L_elbow_med			L_elbow_lat			L_forearm			L_wrist_radius			L_wrist_ulna			R_HJC			L_HJC			R_HJC_reg			L_HJC_reg			
		X1	Y1	Z1	X2	Y2	Z2	X3	Y3	Z3	X4	Y4	Z4	X5	Y5	Z5	X6	Y6	Z6	X7	Y7	Z7	X8	Y8	Z8	X9	Y9	Z9	X10	Y10	Z10	X11	Y11	Z11	X12	Y12	Z12	X13	Y13	Z13	X14	Y14	Z14	X15	Y15	Z15	X16	Y16	Z16	X17	Y17	Z17	X18	Y18	Z18	X19	Y19	Z19	X20	Y20	Z20	X21	Y21	Z21	X22	Y22	Z22	X23	Y23	Z23	X24	Y24	Z24	X25	Y25	Z25	X26	Y26	Z26	X27	Y27	Z27	X28	Y28	Z28	X29	Y29	Z29	X30	Y30	Z30	X31	Y31	Z31	X32	Y32	Z32	X33	Y33	Z33	X34	Y34	Z34	X35	Y35	Z35	X36	Y36	Z36	X37	Y37	Z37	X38	Y38	Z38	X39	Y39	Z39	X40	Y40	Z40	X41	Y41	Z41	X42	Y42	Z42	X43	Y43	Z43	X44	Y44	Z44	X45	Y45	Z45	X46	Y46	Z46	X47	Y47	Z47	X48	Y48	Z48	X49	Y49	Z49	X50	Y50	Z50	X51	Y51	Z51	

18	0.17000000	115.48539	496.77134	-122.10233	167.55702	406.09922	-137.49645	119.90104	88.07889	-162.76992	66.23909	57.48009	-220.94964	237.19036	46.86562	-117.37671	274.39496	79.23146	-169.39236	-40.42370	457.07218	-410.65701	-75.75020	362.57944	-396.28053	-384.29488	233.20279	-388.04834	-440.41288	290.55982	-334.48385	-424.32803	110.43264	-413.76370	-376.75149	77.32247	-364.05703	173.42606	293.58182	-147.09915	107.09053	398.20223	-92.67847	105.87248	283.47961	-97.96160	-111.24277	436.53485	-432.36269	-215.30771	374.25071	-438.19080	73.14347	776.64130	-86.47611	115.06381	675.68701	-106.92002	76.83243	628.98762	-74.70893	-27.51660	729.09038	-63.78977	21.83202	624.83433	-88.69338	38.00177	702.70412	-417.20238	54.10192	564.67834	-399.86927	-65.42891	687.22433	-448.92248	-53.01866	556.91027	-421.13485	51.76916	950.40370	-131.11954	-157.81868	964.32765	-219.17899	51.64484	928.30889	-383.86196	-151.13598	958.40886	-315.09933	-148.67459	1420.23693	-248.50703	-94.79656	1392.05536	-81.83949	-61.69386	1401.82926	-398.11802	-16.43725	1360.49313	-216.96969	-15.96753	1363.53714	-263.01542	-68.45155	1261.21787	-24.97512	-136.26419	1061.28932	-92.58779	-150.38872	1071.52748	-26.18291	-112.31786	1006.79293	13.73049	-62.82689	840.86675	5.16941	-109.75089	843.63819	27.86742	-22.92362	1267.81051	-463.56979	-67.21527	1062.47513	-414.05673	-49.88263	1074.71936	-490.97318	13.98274	1030.74105	-499.74432	104.48027	879.23219	-470.96483	73.72722	872.38265	-510.73826	-29.11482	857.00939	-151.56615	-23.88655	841.78727	-340.46146	-21.71453	863.53110	-166.49346	-10.08817	853.19979	-333.21400	
19	0.18000000	122.06895	496.74747	-121.57546	172.60395	405.29639	-137.05204	120.32826	88.10775	-163.03822	66.27904	57.56978	-221.00153	237.33065	46.50004	-117.34702	274.73154	78.40359	-169.56832	-13.15464	458.39162	-409.16898	-48.13805	364.10815	-394.34380	-358.41924	239.25357	-387.60124	-414.56441	296.26069	-334.09467	-397.68896	116.59500	-414.05834	-351.05950	82.96205	-363.85343	176.80798	292.71431	-146.83781	111.93412	398.23962	-92.43639	108.95487	283.53853	-97.93242	-82.64775	438.50392	-430.36125	-187.31682	377.43009	-436.74771	84.15649	777.51504	-85.59494	124.73025	675.78892	-106.55659	85.95880	629.72046	-74.03799	-16.56869	731.46077	-62.60559	30.01352	627.27102	-87.44870	56.60170	705.74335	-415.22255	77.29955	568.29291	-397.78509	-46.28950	686.84001	-447.33429	-29.33955	556.95616	-419.66693	63.94743	952.55887	-129.59980	-145.69248	966.46421	-218.34026	63.73044	930.16206	-382.45101	-138.98409	959.47464	-313.87692	-135.51825	1422.52439	-246.91059	-80.68232	1394.10129	-80.44251	-49.01946	1403.86609	-396.94010	-3.29123	1362.42462	-215.92466	-2.90038	1365.49931	-261.98752	-53.23084	1263.24202	-23.87688	-121.55088	1062.90863	-89.82550	-134.58396	1073.28547	-23.21594	-95.37664	1008.92085	16.22268	-44.68724	843.36209	7.39797	-91.08903	845.81456	30.70352	-11.12023	1269.52048	-462.37648	-56.29661	1064.59959	-412.19203	-39.76800	1076.64986	-489.36303	22.74230	1031.05551	-499.15906	108.30152	876.15329	-472.36443	76.96329	870.72254	-511.93047	-16.90371	859.13108	-150.06112	-11.50107	843.43503	-338.91743	-9.98541	866.83531	-164.19582	1.72244	854.60392	-330.88759	
20	0.19000000	128.11804	496.66852	-121.11387	177.05558	404.49833	-136.48187	120.68717	88.17733	-163.27361	66.30837	57.67097	-221.04180	237.43377	46.20298	-117.29564	274.98217	77.71793	-169.70678	13.77978	460.61284	-407.50930	-20.47063	366.41268	-392.18999	-331.62224	244.23338	-386.86492	-389.09316	300.13665	-333.77504	-368.00395	121.41841	-414.29139	-322.10526	88.07655	-363.27454	179.69459	291.88517	-146.45869	116.05595	398.26918	-92.27306	111.40088	283.60480	-98.00546	-54.33213	441.07189	-428.24237	-159.34559	380.75998	-435.08917	94.77840	778.28184	-84.91523	133.95632	675.82193	-106.37596	94.69362	630.38112	-73.47768	-6.16323	733.69036	-61.62046	37.97413	629.33295	-86.38570	75.05051	709.41459	-413.07931	100.11435	572.65118	-395.44780	-27.19414	687.20300	-445.78516	-5.87779	557.89527	-418.03529	75.94054	954.49776	-128.33981	-133.71893	968.67439	-217.07989	75.49772	932.36581	-381.43632	-127.19075	960.96730	-312.22811	-122.47769	1424.99574	-245.50490	-66.66698	1396.31168	-79.22598	-36.48218	1406.01697	-395.95450	9.69661	1364.43896	-215.09504	10.01934	1367.53890	-261.16885	-38.06560	1265.42142	-22.99041	-106.90333	1064.63641	-87.06935	-118.75964	1075.20152	-20.26313	-78.31569	1011.25916	18.65743	-26.22518	846.14545	9.58881	-72.25664	848.24388	33.56197	0.63748	1271.34948	-461.29245	-45.47571	1066.79618	-410.51967	-29.71726	1078.75084	-487.95913	31.30673	1031.59453	-498.74306	111.83249	873.46746	-473.94863	79.93227	869.49613	-513.27722	-4.78118	861.11041	-148.80237	0.38655	845.42927	-337.66188	1.68538	869.85297	-162.32680	13.12216	856.32518	-329.09304	
21	0.20000000	133.72191	496.58421	-120.66781	181.04297	403.74570	-135.78671	120.99321	88.27582	-163.47127	66.33282	57.78829	-221.06268	237.50806	45.95719	-117.22067	275.17322	77.14752	-169.80160	40.34324	463.60796	-405.66352	7.25865	369.42907	-389.85336	-303.95577	247.95118	-385.86342	-363.66982	302.28068	-333.46150	-336.07908	124.79653	-414.34650	-290.65250	92.33553	-362.38330	182.18130	291.13217	-145.96753	119.62069	398.33403	-92.11325	113.35960	283.72139	-98.10318	-26.32256	444.14980	-426.08081	-131.40931	384.10356	-433.27925	105.05177	778.98626	-84.38948	142.78548	675.81986	-106.29598	103.05995	631.00420	-72.96462	3.76656	735.81673	-60.74371	45.82354	631.07386	-85.46337	93.31820	713.69184	-410.81386	122.51130	577.70972	-392.91075	-8.17105	688.29088	-444.26841	17.31662	559.68680	-416.28011	87.80292	956.25495	-127.32308	-121.86698	970.96731	-215.42068	87.00249	934.92389	-380.75360	-115.68498	962.92230	-310.23553	-109.55217	1427.63732	-244.26825	-52.78663	1398.70140	-78.17735	-24.10414	1408.29714	-395.12911	22.51942	1366.54595	-214.45375	22.79397	1369.66402	-260.52597	-23.00823	1267.78908	-22.28186	-92.33325	1066.53159	-84.35743	-102.94129	1077.30356	-17.36278	-61.17812	1013.83495	21.00866	-7.48817	849.23821	11.72536	-53.29473	850.95246	36.39952	12.33405	1273.31205	-460.32305	-34.80283	1069.09842	-409.04414	-19.77110	1081.04463	-486.76483	39.66912	1032.39505	-498.48314	115.11933	871.25182	-475.69482	82.68108	868.77201	-514.77170	7.27541	862.97881	-147.78032	11.84729	847.78140	-336.68307	13.34507	872.56057	-160.89915	24.21875	858.39549	-327.82580	
